<svg xmlns="http://www.w3.org/2000/svg" width="81" height="81" stroke="#000" stroke-linecap="round" stroke-linejoin="round" fill="#fff" fill-rule="evenodd"><defs><linearGradient id="A" x1="0%" y1="0%" x2="100%" y2="100%"><stop offset="0%" stop-color="#0af"/><stop offset="100%" stop-color="#00387f"/></linearGradient></defs><g fill="url(#A)" stroke="none"><path d="M61.1115 67.7236c-6.3309 4.878-13.7574 7.1951-21.1435 7.1951-10.5513 0-20.697-4.6748-27.6771-13.7805C.6845 45.8943 3.6063 24.1057 18.8247 12.439c6.3309-4.878 13.7574-7.1951 21.1433-7.1951 10.5515 0 20.6969 4.6748 27.6771 13.7804 11.6472 15.2439 8.6848 37.0732-6.5336 48.6993zm10.592-52.0732C63.871 5.2845 51.8181 0 40.0086 0c-8.441 0-17.1257 2.7642-24.3087 8.252C-1.8317 21.7886-5.2406 46.7887 8.3138 64.3496 16.1463 74.7155 27.9558 80 40.0086 80c8.4413 0 17.1258-2.7642 24.3089-8.252 17.5315-13.3334 20.8998-38.5367 7.386-56.0976z"/><path d="M21.8837 47.4932c-2.3132-2.3171-4.2206-4.4309-5.7221-6.5447-3.3682 6.7886-4.4234 13.7805-4.8699 19.4715.4058.4066.4058.8537.6493 1.2602 1.7044 2.1138 3.8148 4.2277 5.7221 5.7317 0-4.6748.4059-12.3171 4.2206-19.9187z"/><path d="M34.1818 20.6098c-3.1654 2.1138-6.3309 4.878-9.7396 8.4553-1.7046 1.9106-3.3685 3.8211-4.6671 5.7317 1.4609 2.3171 3.1654 4.6748 5.4786 6.9919 1.7044-2.3171 3.8148-4.8781 6.3308-7.1952 3.1655-2.9674 6.1281-5.4878 9.0906-7.3984l-6.4933-6.5853z"/><path d="M67.3182 18.5637c-1.461-1.9106-2.9624-3.5773-4.8698-5.0814-5.2757-.8536-14.0008-.691-23.4972 4.3903 2.1105 2.3171 4.4235 4.6748 6.5338 6.5447 12.6618-6.9512 21.8332-5.8536 21.8332-5.8536z"/><path d="M16.309 40.6583l3.3682-5.935c-5.4785-8.6992-5.2755-15.8943-4.6668-19.2683-1.258 1.4634-2.7597 2.9675-3.8147 4.4309-1.0147 4.9187-1.0147 12.1138 5.1133 20.7724z"/><path d="M31.9223 47.9462l-6.5338-5.935-3.3683 5.4878c1.7044 1.7073 3.8148 3.6179 6.1278 5.2845C42.3113 64.003 56.4745 65.06 64.51 65.06c.4057 0 2.9623-3.374 4.4233-5.4878-3.6523.8536-18.8707 2.7642-37.011-11.626z"/><path d="M16.2609 40.7027c1.4609 2.1138 3.3683 4.4309 5.7221 6.5447.8523-1.9106 1.9074-3.6179 3.3683-5.4878-2.3131-2.3171-4.0176-4.6748-5.4786-6.9919-1.4608 2.1139-2.5567 4.0244-3.6118 5.935z"/><path d="M40.6632 27.2231c13.1082 12.0732 28.3264 22.2358 32.3442 25 .4057-1.0569.6493-1.9106.8522-2.9675-4.2206-3.1707-15.2184-11.626-28.5293-25-1.2988.8537-3.0032 1.4228-4.6671 2.9675z"/><path d="M39.166 17.7807c-3.1655-3.374-6.5339-7.1546-9.9427-10.9757-1.461.4066-3.1653 1.057-4.667 1.9106 2.3132 4.0244 5.9251 8.1708 9.4963 11.9919 1.9479-1.0569 3.4494-2.0732 5.1134-2.9268z"/><path d="M39.159 17.7696c-1.7044.8537-3.6524 1.6667-5.1133 2.9268l6.6149 6.5041 4.8293-2.7643-6.3309-6.6666z"/><path d="M56.0888 35.7267c-3.1655 2.561-3.8148 7.1951-1.4611 10.3658 2.5567 3.374 7.1832 3.8212 10.5514 1.4634 3.1654-2.561 3.8147-7.1951 1.4609-10.5691-2.5159-3.1707-7.1424-3.7805-10.5512-1.2601z"/><path d="M40.6693 54.4897c-2.9625 2.3171-3.6118 6.7887-1.2581 9.7562 2.3132 2.9674 6.7773 3.6178 9.7399 1.2601 2.9625-2.317 3.6118-6.5448 1.2581-9.7561-2.3133-3.1707-6.5744-3.5773-9.7399-1.2602z"/><path d="M14.7997 32.4518c-4.6671 3.6179-5.4786 10.1626-1.9073 14.8374 3.6116 4.6748 10.1454 5.4878 14.8124 1.9105s5.4786-10.1625 1.9074-14.8374c-3.6118-4.6748-10.3892-5.5284-14.8125-1.9105z"/></g></svg>