<svg xmlns="http://www.w3.org/2000/svg" xmlns:xlink="http://www.w3.org/1999/xlink" viewBox="0 0 91 102" fill="#fff" fill-rule="evenodd" stroke="#000" stroke-linecap="round" stroke-linejoin="round"><style><![CDATA[.B{stroke:none}.C{fill:#263238}.D{font-weight:bold}.E{fill:#303030}.F{fill-opacity:.5}.G{fill:#ffe06a}]]></style><use xlink:href="#A" x=".5" y=".5"/><symbol id="A" overflow="visible"><path d="M48.602 19.609c-1.06-3.817-9.506-7.187-12.95 6.393s-1.709 18.339-3.61 23.134 2.584 41.899 13.189 41.778c11.348-.132 13.819-35.621 11.563-42.809s-.278-28.508-8.192-28.497z" fill="#605343" class="B"/><path d="M54 66c-.671-1.016-17.809-.271-18 0-5.5 7-17.115 10.512-26.396 12.572S.02 92.247 0 100h90c0-7.753-.186-19.339-9.604-21.428S59.375 72.875 54 66z" fill="#464646" class="B"/><g class="B"><path d="M54.017 58.861v11.92c-5.408 10.205-13.516 9.948-18.035 0V58.828c-3.165-2.751-6.377-6.614-8.834-11.279-.267.494-.624.867-1.068 1.08-1.817.873-4.348-1.267-5.686-4.784s-.982-7.093.84-7.945c.625-.302 1.338-.243 2.06.11-1.972-14.029 5.213-31.72 21.725-31.72s23.693 17.683 21.726 31.711c.715-.345 1.421-.401 2.039-.101 1.803.852 2.184 4.427.845 7.944s-3.869 5.657-5.686 4.785c-.441-.212-.795-.581-1.061-1.07-2.466 4.678-5.691 8.55-8.865 11.301z" fill="#f5d5c1"/><path d="M37.75 25c-.5 4.5-.61 6.185-8.25 6-6-1-5.349 6.01-4.294 11.22-5.149-7.035-4.543-13.717-2.931-20.505C24.029 14.27 31 4.5 41.189 3.15c4.514-.526 11.343.095 18.607 5.726 12.701 9.842 8.451 31.951 5.031 34.554C71.25 16.75 40.5 40.75 38.75 25.25c-.5-2.75-.75-2.25-1-.25z" fill="#605343"/></g><g class="B"><path d="M35.991 58.835c3.395 2.949 6.735 4.616 9.029 4.616s5.633-1.667 9.028-4.616l-.03.594s-5.823 6.152-9.101 6.152-8.934-6.083-8.934-6.083z" fill="#000" fill-opacity=".2"/><path d="M37.848 57c-7-1.75-8-3-10.5-4.75-2.25-2-3.75-3.5-4.75-4.25l2.75-2.5c.25 1.25 2.25 3.5 4.75 5 3.25 2 4.25 2.5 7.25 3.25z" fill="#444"/><rect fill="#4f4f4f" height="5.75" rx="3" width="9" x="36.598" y="51.75"/><path d="M69.017 22.282c-1.68-11.416-11.319-20.16-24.223-20.16s-23.13 8.745-24.811 20.16v9.815l-3.233.796V22.282C18.445 9.688 30.608 0 44.794 0S70.555 9.688 72.25 22.282v11.406c-.294 1.061-.588 1.061-1.469 1.061-1.176 0-1.764-.531-1.764-1.326z" fill="#444"/><g fill="#4f4f4f"><path d="M19.099 32c-2.75.5-3.5 1.25-4.5 3-.75 1.5-.75 2.5-.25 4.5l2.5 6.5c1.25 2.25 2 2.75 4.25 3 2.5 0 4-.25 4.5-2.25.25-.75-.25-1.75-.5-2.75l-4-11c-.25-.75-1.25-1-2-1zM45 78l-4.966 3.283L45 88.762l4.966-7.479z"/><path d="M43.108 84.363h3.784L48.784 100H45h-3.784z"/></g><path d="M41.216 100h7.568l5.203-18.792L45 78l-9.459 2.75z" class="G"/></g><path d="M45.202 78q8.277-3 8.987-10.5l4.966 4q.473 1.5-5.439 12.25-4.493-3.25-8.513-5.75z" fill="#000" class="B F"/><path d="M45.202 78q6.434-6.5 8.799-12l5.154 5.5q-2.365 5.25-5.676 11-3.074-2.25-8.277-4.5z" class="B G"/><path d="M45 78q-8.312-3.435-9.022-10.5l-4.966 3.768q-.473 1.413 5.439 11.54Q40.98 80.355 45 78z" fill="#000" class="B F"/><path d="M44.965 78q-6.622-6.5-8.987-12L31 71.25q2.365 5.25 5.688 11.25 3.074-2.25 8.277-4.5z" class="B G"/><path d="M33.5 69c-1.861.62-2.554 2.043-3.5 2.75-.946 2.591-1.554 4.464-2.5 10.587 3.311 0 4.493.236 6.858.471-1.182 1.413-1.892 1.884-4.02 3.768.946 5.181 4.257 11.069 5.912 13.424h4.848L33.5 69z" fill="#000" class="B F"/><path d="M33.625 68.5l-4.125 3c-.946 2.591-1.054 4.243-2 10.366 3.311 0 4.02 0 6.622.707-1.182 1.413-1.655 2.12-3.784 4.004 1.655 4.475 2.838 6.594 6.385 13.424h4.493l-7.591-31.5z" fill="#404040" class="B"/><path d="M56.5 68.75c1.861.925 2.804 2.045 3.75 2.75.946 2.586 1.304 4.757 2.25 10.869-3.311 0-4.493.235-6.858.47 1.182 1.41 1.892 1.881 4.02 3.761-.946 5.172-4.257 11.049-5.912 13.399h-4.848L56.5 68.75z" fill="#000" class="B F"/><path d="M56.352 68.5l4.149 3c.946 2.586 1.054 4.287 2 10.399-3.311 0-4.02 0-6.622.705 1.182 1.41 1.655 2.116 3.784 3.996-1.655 4.466-2.838 6.582-6.385 13.399h-4.493l7.568-31.5z" fill="#404040" class="B"/></symbol></svg>