<svg xmlns="http://www.w3.org/2000/svg" width="90" height="80" stroke="#000" stroke-linecap="round" stroke-linejoin="round" fill="#fff" fill-rule="evenodd"><defs><linearGradient id="A" x1="0%" y1="0%" x2="100%" y2="100%"><stop offset="0%" stop-color="#52c234"/><stop offset="100%" stop-color="#061700"/></linearGradient></defs><path d="M86.5802 0H3.2401C1.4401 0 0 1.7778 0 3.5556v10.6666h90V3.5556C90 1.7778 88.5599 0 86.5802 0zM0 76.6222C0 78.4 1.4401 80 3.2401 80h83.3401C88.3802 80 90 78.5777 90 76.6222V17.7778H0v58.8444zm7.2-51.7333h75.6v12.4444H7.2V24.8889zm0 17.7778h75.6v12.4444H7.2V42.6667zm0 17.7777h75.6v12.4445H7.2V60.4444z" stroke="none" fill="url(#A)"/></svg>