<svg xmlns="http://www.w3.org/2000/svg" width="91" height="81" stroke="#000" stroke-linecap="round" stroke-linejoin="round" fill="#fff" fill-rule="evenodd"><defs><linearGradient id="A" x1="0%" y1="0%" x2="100%" y2="100%"><stop offset="0%" stop-color="#0af"/><stop offset="100%" stop-color="#00387f"/></linearGradient></defs><g fill="url(#A)" stroke="none"><path d="M84.5552 0H4.9631C2.3463 0 0 2.055 0 4.7758v54.269c0 2.5181 2.1357 5.0073 4.9631 5.0073h27.2527c2.8576 10.0434 1.6546 10.9406-15.6416 10.9406V80h56.8514v-5.0073c-17.296 0-19.6723-.926-16.8147-10.9406h27.9443c2.617 0 5.4446-2.2865 5.4446-4.5731V4.7758C90.03 2.055 87.1722 0 84.5552 0h0zM82.901 56.9898H6.6176l.4813-50.3905 75.8021.2315v50.159z"/><path d="M57.7839 21.9103l-13.9573-7.7568-13.7465 7.7568v.2027l13.7465 7.7569 13.9573-7.7569v-.2027z"/><path d="M45 32.8509v15.2534l14.2278-7.728V25.0941L45 32.8509z"/><path d="M42.6237 32.8509l-14.198-7.7568v15.2822l14.198 7.728V32.8509z"/></g></svg>